<?xml version="1.0" encoding="UTF-8"?>
<svg id="layer2" xmlns="http://www.w3.org/2000/svg" viewBox="0 0 1539.45 529.41">
  <defs>
    <style>
      .cls-1 {
        letter-spacing: -.02em;
      }

      .cls-2 {
        fill: #fff;
      }

      .cls-3 {
        fill: #3fa34a;
      }

      .cls-4 {
        letter-spacing: -.07em;
      }

      .cls-5 {
        letter-spacing: .02em;
      }

      .cls-6 {
        fill: #231815;
        font-family: Arial-Black, 'Arial Black';
        font-size: 114.29px;
        font-weight: 800;
      }
    </style>
  </defs>
  <rect id="Rectangle1" class="cls-3" width="529.41" height="529.41"/>
  <g id="group8">
    <path class="cls-2" d="m263.76,427.24c-214.78-6.48-214.73-318.53,0-324.97,214.78,6.47,214.71,318.53,0,324.97Zm-101.5-96.07c-16.23,9.78-14.82,26.23-1.58,36.66,27.53,27.53,64.14,42.7,103.08,42.7,29.87,6.74,153.14-46.14,100-80.07-8.07,10.29-11.62,27.9-28.39,27.18-7.09,1.06-62.36-21.18-70.15-23.26-1.07-7.1,52.68-100.27,59.48-103.03l47.71,40.53c10.37,8.43,13.29,19.75,7.63,29.54l-9.84,17.05c9.72,7.01,23.73,6.19,30.6-4.18,5.83-16.08,8.72-32.66,8.72-49.53,10.01-92.99-135.67-188.12-138.94-119.35l1.06.4h18.58c11.31,0,19.65,8.18,21.77,21.36l11.24,61.6c-5.93,4.52-113.07,4.5-118.96,0l11.24-61.57c2.11-13.21,10.45-21.39,21.76-21.39h19.68c-2.6-69.51-149.01,25.77-138.98,118.95,0,16.8,2.81,33.26,8.37,48.89,6.76,10.79,20.7,12.08,30.58,5l-.17-1.14-9.29-16.09c-5.65-9.8-2.74-21.11,7.61-29.53l47.73-40.54c6.81,2.76,60.58,95.96,59.48,103.03-8.12,2.2-62.81,24.25-70.14,23.26-15.29,1.21-21.6-17.01-28.05-27.42l-1.86.95Zm150.53,7.67c8.19,2.61,24.72,11.7,29.89-.17l-23.27-11.22-6.62,11.4Zm-127.94-.17c5.19,11.89,21.73,2.75,29.94.16l-6.58-11.41-23.36,11.26Zm105.47-23.95c-4.07,8.72-5.43,11.83-6.31,13.81l20.47,7.34,7.06-12.2-20.73-10-.49,1.05Zm-74.27,8.91l7.05,12.22,20.41-7.32c-.28-.63-3.37-7.59-6.8-14.87l-20.65,9.96Zm108.03-4.27l23.26,11.22,5.23-9.06-22.28-12.86-6.21,10.71Zm-149.13,2.16l5.23,9.06,23.35-11.27-6.18-10.72-22.39,12.93Zm126.08-28.4c-2.04,3.8-4.18,8.04-6.18,12.13l21.39,10.32,6.53-11.26-21.18-12.24-.56,1.04Zm-96.16,11.12l6.51,11.29,21.3-10.27c-2.21-4.49-4.48-8.98-6.74-13.18l-21.07,12.17Zm130.11-3.66l22.27,12.86,5.22-9.07-21.28-14.49-6.21,10.7Zm-169.92,3.79l5.23,9.06,22.39-12.93-6.19-10.72-21.44,14.59Zm180.82-22.58l21.27,14.49c7.43-12.05-8.39-19.51-14.67-25.87l-6.6,11.38Zm-181.27-2.53c-3.22,2.34-9.39,10.95-4.23,17.02l21.44-14.59-6.59-11.43-10.61,9Zm149.05-6.74c-2.6,3.9-5.1,7.71-7.41,11.48l21.2,12.24,6.52-11.26-19.68-13.41-.64.95Zm-119.97,12.37l6.51,11.27,21.07-12.16c-2.48-4.08-5.26-8.28-8.04-12.43l-19.54,13.32Zm134.63-33.35c.27-.38-4.81,6.64-8.75,12.33l19.1,13.02,7.07-12.19-16.7-14.15-.72.99Zm-146.36,13.01l7.05,12.22,18.95-12.9c-4.62-6.65-9-12.7-9.47-13.32l-16.52,14Zm62.34-46.86c4.99.34,10.01.61,14.79.75v-24.43h-13.02l-1.77,23.68Zm24.11.75c4.78-.13,9.8-.41,14.79-.75l-1.76-23.67h-13.03v24.43Zm24.09-1.47c8.07-.66,15.53-1.47,16.28-1.53l-3.88-21.43h-14.1l1.7,22.96Zm-73.77-1.53c.71.06,8.24.87,16.28,1.53l1.7-22.96h-14.09l-3.89,21.43Zm71.42-30.12h13.17c-2.43-8.65-.84-26.14-15.09-25.76l1.92,25.76Zm-21.73,0h12.38l-1.91-25.76h-10.47v25.76Zm-21.69,0h12.37v-25.76h-10.45l-1.91,25.76Zm-9.44-25.76c-12.52,1.66-10.85,18.83-13.09,25.76h13.17l1.92-25.76h-1.99Z"/>
    <g>
      <path class="cls-2" d="m85.44,435.99c.2-.44-.1-.93-.54-.93h-6.58c-.54,0-.98.44-1.03,1.04l-2.16,23.26c-.16,2.64-4.02,2.88-3.83,0,.42-5.45,3.67-35.26,3.04-40.03,0-2.18,1.57-3.99,3.54-3.99h26.57c4.23-.04,3.56,5.86,3.54,8.74,0,2.19-1.57,3.93-3.54,3.93-.65.57-27.44-1.33-26.52,1.09-.14.67,0,1.58.83,1.58,0,0,28.58,0,28.58,0,2.48-.04,2.5,4.41,0,4.37,0,0-16.45,0-16.45,0-1.5-.13-1.97,2.97-2.5,3.88-.2.44.1.93.54.87l10.66-.6c.29,0,.44-.33.39-.6-.53-3.25,3.96-2.38,4.37.16.22,1.54,2.57,6.06-.44,6.23-1.06.1-2.24-.1-2.5-1.37-.05-.22-.25-.33-.44-.33l-15.42.87c-4.44-.27-.82-6.07-.1-8.19Zm10.31,20.04c0,.6.39,1.04.93,1.04h11.3c2.51-.06,2.58,4.47,0,4.42,0,0-28.34,0-28.34,0-1.08,0-1.96-.98-1.96-2.18s.88-2.24,1.96-2.24h11.3c1.3.03.87-2.1.93-2.89,0-.6-.44-1.09-.93-1.09h-8.2c-2.57.02-2.52-4.35,0-4.31,0,0,8.59,0,8.59,0,.37.02.59-.42.54-.82-.01-2.78,3.9-2.73,3.88,0-.05.4.18.83.54.82,0,0,8.64,0,8.64,0,1.08,0,1.92.98,1.92,2.18s-.84,2.13-1.92,2.13h-8.25c-1.32-.01-.86,2.14-.93,2.95Zm-16.7-36.43c-1.36-.04-.84,2.36-.93,3.17,0,.55.44,1.04.93,1.04h24.21c1.44,0,.88-2.32.98-3.17,0-.6-.44-1.04-.98-1.04h-24.21Z"/>
      <path class="cls-2" d="m427.67,447.7c-1.08,0-1.18,1.85-.05,1.86,0,0,5.21,0,5.21,0,4.77-.02,3.06,7.11,3.04,10.05-.05,2.38-3.49,2.43-3.39,0,0,0,.29-5.19.29-5.19,0-.55-.39-1.04-.88-1.04-1.13.26-6.23-.77-6.53.98-.78,1.72-1.36,6.1-3.98,5.9-.88,0-1.47-.98-1.13-1.91l2.75-7.7c.28-.86.92-2.79-.44-2.95,0,0-5.01,0-5.01,0-2.16.03-2.17-3.85,0-3.82,0,0,7.07,0,7.07,0,.78.03.64-.91.64-1.42-.02-2.48,3.49-2.47,3.44,0-.02.51-.09,1.44.64,1.42,0,0,7.91,0,7.91,0,2.24-.03,2.24,3.85,0,3.82,0,0-9.58,0-9.58,0Zm-3.44-22.12c1.2.01,1.2-2.2,0-2.18,0,0-6.53,0-6.53,0-1.97.03-1.98-3.41,0-3.39,0,0,6.58,0,6.58,0,.49,0,.88-.44.88-.93-.02-1.22-.27-3.69,1.52-3.66,1.79-.02,1.54,2.43,1.52,3.66,0,.49.39.93.88.93h6.63c1.98-.04,1.99,3.42,0,3.39,0,0-6.53,0-6.53,0-.54,0-.98.49-.98,1.09.43,3.09,7.85-1.81,8.3,5.03,0,0,0,6.23,0,6.23,0,2.24-1.57,3.99-3.54,3.99h-12.42c-1.96,0-3.59-1.75-3.59-3.99.15-6.7-1.55-10.98,7.27-10.16Zm.93,4.31c.13-1.7-3.48-.75-4.32-.98-.49,0-.93.44-.93.98-.1,1.76,3.48.81,4.37,1.04.49,0,.88-.49.88-1.04Zm-4.32,4.48c-1.23-.02-1.18,2.06,0,2.02,0,0,3.44,0,3.44,0,1.12.04,1.18-2.05,0-2.02,0,0-3.44,0-3.44,0Zm12.67-4.48c.14-1.71-3.53-.74-4.37-.98-.49,0-.93.44-.93.98-.1,1.77,3.53.81,4.42,1.04.49,0,.88-.49.88-1.04Zm-5.3,5.46c-.12,1.79,3.52.79,4.42,1.04.49,0,.88-.44.88-1.04.14-1.71-3.53-.74-4.37-.98-.49,0-.93.44-.93.98Zm6.38-18.19c.38.91-.3,1.92-1.23,1.8-1.77.29-3.93-3.09-1.52-3.6,1.18-.08,2.27.62,2.75,1.8Zm22.84,41.61c.87,3.31-3.72,2.34-4.32,0,0,0-3.78-8.96-3.78-8.96-.15-.38-.64-.38-.83,0l-4.22,9.23c-.64,2.39-5.4,3.38-4.47,0,.22-1.15,7.85-15.32,6.58-16.22,0,0-3.63-8.46-3.63-8.46-.92-.89-.13,3.09-3.04,3.06-1.03,0-1.82-1.09-1.62-2.24l2.9-16.77c.3-2.64,4.48-3.14,4.08,0,.06.85-1.3,3.86.29,3.93,0,0,10.71,0,10.71,0,1.08,0,1.96.98,1.96,2.24.05,2.56-1.48,1.59-2.26,2.68-5.5,19.32-6.05,12.93,1.67,31.51Zm-9.28-22.06c.78,2.05,3.01-9.05,3.24-8.9.15-.49-.2-1.04-.69-1.04-9.55-.11-6.46-.95-2.55,9.94Z"/>
      <path class="cls-2" d="m105.89,83.43c-2.07-.17-.85-2.16-1.77-2.35,0,0-26.52,0-26.52,0-1.51-.05-.77,2.88-.93,3.71,0,0-1.57,27.74-1.57,27.74-.05,1.2-.93,2.13-2.01,2.13s-1.87-.98-1.82-2.13c.07-2.64,1.82-30.28,1.52-31.95,0-2.18,1.62-3.93,3.59-3.93h9.48c2.7-.46-1.11-8.71,2.95-8.74,2.32.03,1.37,2.2,2.41,2.57,0,0,13.85,0,13.85,0,2.47-.01,2.48,4.31,0,4.26,0,0-13.46,0-13.46,0-1.17,0-1.12,1.93,0,1.91,0,0,14.54,0,14.54,0,1.62,0,2.85,1.64,2.55,3.39-.08,1.65-.92,3.59-2.8,3.39Zm-16.75,12.18c-5.08-.48-2.37-5.89-4.52-5.79-1.59,0-5.14,1.04-5.11-1.69.07-3.88,5.64-1.14,6.09-3.17-.13-1.22.7-2.42,1.87-2.4,1.07,0,1.92,1.01,1.87,2.18,0,.33.25.6.54.55l9.33-.6c2.52-.12,2.32,4.09,0,4.1,0,0-9.04.66-9.04.66-.44.05-.83.49-.83,1.04,0,.49.39.93.83.93h13.75c2.51-.05,2.48,4.23,0,4.21,0,0-14.78,0-14.78,0Zm-6.24,19.06c-1.08,0-1.87-1.09-1.62-2.24l2.36-11.85c.25-1.31,1.33-2.24,2.5-2.24,1.08,0,1.87,1.04,1.62,2.24l-2.31,11.85c-.29,1.31-1.33,2.24-2.55,2.24Zm14.98-5.41c0,.6.44,1.09.98,1.09h9.09c2.64-.05,2.59,4.49,0,4.42,0,0-10.46,0-10.46,0-1.96,0-3.54-1.8-3.54-3.99v-10.27c-.03-2.83,3.96-2.84,3.93,0,0,0,0,8.74,0,8.74Z"/>
      <path class="cls-2" d="m420.47,82.45c-2.77,1.77-2.85-4.17-3.44-5.52-.05-.16-.2-.27-.34-.22-1.08.23-.96-1.34-.93-2.02,0-1.31.83-2.51,2.01-2.79l11.64-3.11c2.85-.46,2.23,4.13,0,4.48-.48.24-1.71.27-1.52,1.09.75,3.13-3.37,5.67-3.83,1.31-.17-1.36-3.36-.36-2.85.93.51,1.88,1.18,4.54-.74,5.84Zm11.59-3.28c.19,3.43-2.84,3.84-2.55,5.46,1.44,4.37,4.22,10.31,3.78,15.02,0,0-.34,10.38-.34,10.38-.16,3.76-3.58,4.21-6.48,3.93-3.1-.4-2.6-5.1,1.57-4.31.54,0,.98-.49.98-1.09l.15-5.95c-.35-2.33-5.25,7.43-9.38,6.55-.98,0-1.52-1.42-.83-2.24.48-1.08,10.94-11.18,9.72-12.51-.14-.54-.66-1.12-1.13-.55,0,0-3.54,3.93-3.54,3.93-1.19,1.89-7.03,3.83-5.6.05,0,0,7.51-8.41,7.51-8.41.76-.69.49-3.03-.83-2.29,0,0-4.32,3.28-4.32,3.28-3.33,1.13-1.87-4.46,0-5.3,0,0,9.33-7.1,9.33-7.1.83-.66,1.96.05,1.96,1.15Zm9.13-5.08c-.1.55.25,1.04.74,1.04h12.77c1.96,0,3.54,1.8,3.44,3.99l-1.08,32.33c.05,3-4.4,3.08-4.27,0,0,0,1.03-30.53,1.03-30.53,0-.55-.39-1.04-.93-1.04h-11.84c-1.68-.13-1.44,4.26-1.87,5.19-.25,1.37-1.37,2.35-2.6,2.35-1.13,0-1.96-1.15-1.77-2.35l2.31-12.78c1.21-3.92,5.62-2.8,4.08,1.8Zm.69,17.37c-.86-3.58,4.08-2.67,4.62,0,.22,1.63,4.18,7.76.59,8.03-3.4.28-4.12-5.87-5.21-8.03Z"/>
    </g>
  </g>
  <text class="cls-6" transform="translate(537.87 313.43)"><tspan x="0" y="0">Ult</tspan><tspan class="cls-5" x="183.99" y="0">r</tspan><tspan x="236.67" y="0">a Tiger </tspan><tspan class="cls-4" x="712.9" y="0">T</tspan><tspan class="cls-1" x="787.68" y="0">o</tspan><tspan x="861.96" y="0">ys</tspan></text>
</svg>